<svg xmlns="http://www.w3.org/2000/svg" version="1.1" viewBox="0 0 263.12 118.95"><title >To/Fro</title><path d="M75.26 45.66c-13.99 0-23.26 9-23.26 23.08 0 14.08 9.81 22.46 22.55 22.46 11.68 0 23-7.26 23-23.26 0-13.1-8.91-22.28-22.29-22.28zm-8.797 10.606c.218.019.457.099.707.244l18.91 10.91a1.12 1.12 0 010 2.11L67.17 80.4c-1.01.63-1.83.16-1.83-1V57.56c0-.87.468-1.352 1.123-1.294z" /><path d="M24.89 41.64H8.76v-11.4h46.17v11.4h-16.4v48.67H24.89z" /><path d="M135.86 30.24h36.72v11.14H149.5V55.1h21.57v11.05H149.5v24.16h-13.64z"/><path d="M180.61 61.07c0-6.41-.18-10.6-.36-14.35h11.68l.44 8h.36c2.23-6.32 7.58-9 11.76-9a13.9 13.9 0 012.86.18v12.77a19.26 19.26 0 00-3.66-.36c-5 0-8.38 2.67-9.27 6.86a16.69 16.69 0 00-.26 3v22.14h-13.55z" /><path d="M234.52 45.72c-13.99 0-23.26 9.01-23.26 23.09s9.81 22.46 22.55 22.46c11.69 0 23-7.27 23-23.27 0-13.08-8.91-22.26-22.29-22.28zm6.582 10.546c.656-.058 1.119.425 1.119 1.295v21.888c0 1.11-.83 1.58-1.83 1l-18.91-10.91a1.11 1.11 0 010-2.1l18.91-10.93c.252-.144.492-.224.71-.243z" /><path d="M97.47 105l25.66-88.4h9L106.47 105z" /></svg>
