<svg id="Layer_1" data-name="Layer 1" xmlns="http://www.w3.org/2000/svg" viewBox="0 0 398.06 316.29"><defs><style>.cls-1{fill:#fee079}.cls-2{fill:#d1dd75}.cls-3{fill:#fff9c5}.cls-4{fill:none;stroke:#9d9d9c;stroke-miterlimit:10}.cls-5{fill:#f9be89}</style></defs><path class="cls-1" d="M39.09 13.54C30 34.21 20.75 56.42 13.71 74.68 35.26 81 57.2 90.06 74 99.71c5.37-18.65 14.76-40.47 25.85-60C82.12 31.54 60 22 39.09 13.54z"/><circle class="cls-2" cx="55.44" cy="53.81" r="17.92" transform="rotate(-55.45 55.436 53.806)"/><path class="cls-3" d="M62.14 61.33c.87.22 1.39-.31 1.14-1.17l-4.61-16.37a.86.86 0 00-1.58-.4L45.22 55.56a.87.87 0 00.44 1.58z"/><path class="cls-4" d="M74.03 99.71L39.09 13.54M13.71 74.68s26.85-55.76 86.17-34.94M49.86 40.1s33.27 38.3 368.48 198.69"/><path class="cls-5" d="M70.43 90.81c-3.53 6.35-5.43 12.56-5.69 17.59a150.49 150.49 0 0122-8.93c-3.64-3.47-9.36-6.56-16.31-8.66z"/><path class="cls-1" d="M153.64 229.76c-2.79 15.56-5.42 32.19-7.2 45.77a202.65 202.65 0 0145.16 7.1 202.91 202.91 0 017.71-45.06c-13.44-2.65-30.04-5.48-45.67-7.81z"/><circle class="cls-2" cx="171.39" cy="254.46" r="12.54" transform="rotate(-69.06 171.37 254.46)"/><path class="cls-3" d="M176.25 260.19c.64.16 1-.23.84-.87l-3.39-12a.63.63 0 00-1.16-.3l-8.73 9a.64.64 0 00.33 1.16z"/><path class="cls-4" d="M191.6 282.63l-37.96-52.87M146.44 275.53s9.08-42.35 52.87-38M165.34 246.05s32 28.34 238 62.47"/><path class="cls-5" d="M187.68 277.17a29.23 29.23 0 00-1 12.9 105.64 105.64 0 0113.51-9.7 29.14 29.14 0 00-12.51-3.2z"/><path class="cls-1" d="M105.4 119.32c-6.31 21.68-12.55 44.92-17.13 63.94 22.18 3.38 45.13 9.54 63.09 16.89 2.86-19.19 9.31-42.06 17.75-62.85-18.69-5.79-41.85-12.3-63.71-17.98z"/><circle class="cls-2" cx="126.9" cy="157.09" r="17.92" transform="rotate(-63 126.886 157.093)"/><path class="cls-3" d="M133.45 164c.87.23 1.38-.3 1.14-1.17L130 146.46a.87.87 0 00-1.59-.4l-11.86 12.18a.87.87 0 00.44 1.58z"/><path class="cls-4" d="M151.36 200.15l-45.96-80.83M88.27 183.26s19.29-58.8 80.84-46M119.56 144.23s33.51 32.84 316.29 120.34"/><path class="cls-5" d="M146.61 191.8c-2.61 6.76-3.77 13.2-3.32 18.2a151.27 151.27 0 0120.65-11.74c-4.08-2.97-10.16-5.26-17.33-6.46z"/><path class="cls-1" d="M194.88 108.81c-6.4 14.46-12.9 30-17.85 42.77a202.07 202.07 0 0142.18 17.6 202.66 202.66 0 0118.19-41.94c-12.4-5.77-27.89-12.45-42.52-18.43z"/><circle class="cls-2" cx="206.26" cy="137.03" r="12.54" transform="rotate(-55.33 206.262 137.031)"/><path class="cls-3" d="M210.94 142.59c.64.17 1-.22.84-.86l-3.38-12a.64.64 0 00-1.17-.3l-8.73 8.95a.64.64 0 00.33 1.16z"/><path class="cls-4" d="M219.21 169.18l-24.33-60.37M177 151.58s18.87-39 60.37-24.34M202.38 127.42s27.06 38.5 216.34 117.15"/><path class="cls-5" d="M216.7 163a29.14 29.14 0 00-4 12.3 106.65 106.65 0 0115.42-6.3 29.25 29.25 0 00-11.42-6z"/><path class="cls-1" d="M280.65 55.33c-4.77 15.07-9.51 31.23-13 44.47a202.72 202.72 0 0143.87 12.84A202.64 202.64 0 01324.94 69c-12.94-4.41-29.08-9.35-44.29-13.67z"/><circle class="cls-2" cx="295.08" cy="82.12" r="12.54" transform="rotate(-61.67 295.057 82.124)"/><path class="cls-3" d="M300.15 87.63c.64.16 1-.23.84-.87l-3.39-12a.63.63 0 00-1.16-.3l-8.73 9c-.46.47-.31 1 .33 1.16z"/><path class="cls-4" d="M311.5 112.64l-30.85-57.31M267.63 99.8S282.08 59 324.94 69M290.16 73s41.33 35.48 228 92.56"/><path class="cls-5" d="M308.32 106.72a29 29 0 00-2.62 12.67 106.28 106.28 0 0114.64-7.88 29.24 29.24 0 00-12.02-4.79z"/><path class="cls-1" d="M164.53 33.87c-4.42 15.18-8.78 31.44-12 44.76a202.68 202.68 0 0144.17 11.82 202.38 202.38 0 0112.43-44c-13.13-4.05-29.3-8.62-44.6-12.58z"/><circle class="cls-2" cx="179.58" cy="60.31" r="12.54" transform="rotate(-63 179.567 60.32)"/><path class="cls-3" d="M184.4 65.74c.64.16 1-.22.84-.86l-3.39-12c-.18-.64-.7-.78-1.16-.3l-8.73 9c-.46.48-.32 1 .33 1.16z"/><path class="cls-4" d="M196.7 90.45l-32.17-56.58M152.54 78.63S166 37.47 209.13 46.46M174.45 51.31s13.43 19 230 87.23"/><path class="cls-5" d="M193.38 84.61a29.23 29.23 0 00-2.33 12.72 105.71 105.71 0 0114.46-8.21 29 29 0 00-12.13-4.51z"/><path class="cls-1" d="M252.78 11.05c-3.64 8.27-7.33 17.16-10.15 24.46a115.1 115.1 0 0124.13 10 115.79 115.79 0 0110.34-24c-7.1-3.26-15.95-7.06-24.32-10.46z"/><circle class="cls-2" cx="259.32" cy="27.16" r="7.17"/><path class="cls-3" d="M262 30.17c.34.08.55-.12.45-.47l-1.83-6.49a.34.34 0 00-.62-.16l-4.71 4.83a.35.35 0 00.18.63z"/><path class="cls-4" d="M266.76 45.52l-13.98-34.47M242.63 35.51s10.74-22.3 34.47-14M257.09 21.68s33.74 31 145 78.34"/><path class="cls-5" d="M265.32 42a16.73 16.73 0 00-2.32 7 61.12 61.12 0 018.81-3.58 16.69 16.69 0 00-6.49-3.42z"/><path class="cls-1" d="M251.94 103.36c-3.05 8.51-6.1 17.63-8.4 25.12a115.12 115.12 0 0124.78 8.28 115.05 115.05 0 018.62-24.66c-7.32-2.77-16.41-5.94-25-8.74z"/><circle class="cls-2" cx="259.6" cy="118.97" r="7.17"/><path class="cls-3" d="M262 122.08c.35.09.55-.12.45-.47l-1.82-6.48c-.1-.35-.38-.42-.63-.16l-4.71 4.82a.35.35 0 00.18.63z"/><path class="cls-4" d="M268.32 136.76l-16.38-33.4M243.54 128.48s9.14-23 33.4-16.38M257 113.66s64.38 35.86 150.2 67.88"/><path class="cls-5" d="M266.63 133.31a16.55 16.55 0 00-1.77 7.18 60.2 60.2 0 018.53-4.19 16.64 16.64 0 00-6.76-2.99z"/><path class="cls-1" d="M222 205.07c-2.26 8.75-4.48 18.11-6.08 25.77a115.58 115.58 0 0125.43 6 114.88 114.88 0 016.34-25.34c-7.58-2.1-16.92-4.43-25.69-6.43z"/><circle class="cls-2" cx="231.01" cy="219.92" r="7.17"/><path class="cls-3" d="M233.41 223c.34.09.55-.12.45-.46l-1.86-6.46c-.09-.35-.38-.42-.63-.16l-4.7 4.83a.34.34 0 00.17.62z"/><path class="cls-4" d="M241.31 236.84l-19.35-31.77M215.88 230.84s7-23.74 31.77-19.34M227.92 214.86s22.14 18 183 63.24"/><path class="cls-5" d="M239.31 233.56a16.69 16.69 0 00-1.11 7.31 61 61 0 018.11-5 16.6 16.6 0 00-7-2.31z"/><path class="cls-1" d="M290.86 248.82c-1 6.24-2 12.9-2.65 18.35a80.54 80.54 0 0118.1 2.6 80.74 80.74 0 012.86-18.06c-5.39-.99-12.05-2.04-18.31-2.89z"/><circle class="cls-2" cx="298.09" cy="258.61" r="5.02"/><path class="cls-3" d="M299.69 261c.25.06.39-.09.32-.33l-1.29-4.67c-.07-.24-.27-.29-.45-.11l-3.34 3.43c-.17.18-.12.38.13.44z"/><path class="cls-4" d="M306.31 269.77l-15.45-20.95M288.21 267.17s3.42-17 21-15.46M295.62 255.28s23.38 14.37 131.49 32.79"/><path class="cls-5" d="M304.72 267.61a11.65 11.65 0 00-.33 5.17 41.34 41.34 0 015.36-3.95 11.66 11.66 0 00-5.03-1.22z"/><path class="cls-1" d="M301.81 142.26c-2 6-4 12.44-5.44 17.72a80.87 80.87 0 0117.48 5.36 80.65 80.65 0 015.61-17.4c-5.18-1.81-11.59-3.88-17.65-5.68z"/><circle class="cls-2" cx="307.44" cy="153.05" r="5.02"/><path class="cls-3" d="M309.53 155.37c.28.07.44-.1.36-.37l-1.44-5.14c-.08-.27-.31-.33-.5-.13l-3.73 3.83c-.2.2-.14.42.14.49z"/><path class="cls-4" d="M313.85 165.34l-12.04-23.08M296.37 160s6-16.26 23.09-12M305.52 149.37S317 161.86 430.39 202"/><path class="cls-5" d="M312.61 163a11.61 11.61 0 00-1.12 5 42.33 42.33 0 015.9-3.07 11.62 11.62 0 00-4.78-1.93z"/></svg>